<svg xmlns="http://www.w3.org/2000/svg" viewBox="0 0 64 64" width="64" height="64">
  <rect width="64" height="64" rx="14" fill="#0e0e10"/>
  <g transform="translate(10,20.74) scale(0.12352)">
    <polygon fill="#c1ff00" points="153.81 109.33 117.36 72.89 0 72.89 0 109.33 147.56 109.33 153.81 109.33"/>
    <polygon fill="#ff6d00" points="319.78 182.22 356.22 182.22 356.22 51.55 319.78 87.99 319.78 182.22"/>
    <polygon fill="#00cfff" points="0 145.78 0 182.22 153.81 182.22 153.81 145.78 147.56 145.78 0 145.78"/>
    <polygon fill="#c000ff" points="319.78 0 304.68 0 226.12 78.56 147.56 0 147.56 0 147.56 0 0 0 0 36.44 132.46 36.44 132.78 36.77 147.56 51.54 200.35 104.33 200.34 104.34 226.11 130.11 226.12 130.1 226.12 130.11 251.89 104.34 319.78 36.45 356.22 0 356.22 0 319.78 0"/>
  </g>
</svg>
